# xmcd
#
# Track frame offsets:
# 150
# 13550
# 29485
# 44720
# 68712
# 72925
# 97482
# 114025
# 123695
# 142752
# 161157
# 181287
#
# Disc length: 2558 seconds
#
#
# Revision: 0
# Processed by: cddbd v1.5.1PL0 Copyright (c) Steve Scherf et al.
# Submitted via: FreeRIP 2.52 
#
DISCID=ab09fc0c
DTITLE=Joserra Senperena - Joserra Senperena
DYEAR=1998
DGENRE=
TTITLE0=The Riff
TTITLE1=Blues Road
TTITLE2=Sudamérica
TTITLE3=Extraños en un Tren
TTITLE4=Una Buena Noticia
TTITLE5=El Último
TTITLE6=Blues Roto
TTITLE7=Ane y María
TTITLE8=Sigues Junto a Mi
TTITLE9=Un Documental
TTITLE10=Metropolitano
TTITLE11=Cerca del Aire
EXTD=
EXTT0=
EXTT1=
EXTT2=
EXTT3=
EXTT4=
EXTT5=
EXTT6=
EXTT7=
EXTT8=
EXTT9=
EXTT10=
EXTT11=
PLAYORDER=
